<?xml version="1.0" standalone="no"?>
<!DOCTYPE svg PUBLIC "-//W3C//DTD SVG 20010904//EN"
 "http://www.w3.org/TR/2001/REC-SVG-20010904/DTD/svg10.dtd">
<svg version="1.0" xmlns="http://www.w3.org/2000/svg"
 width="180.000000pt" height="180.000000pt" viewBox="0 0 180.000000 180.000000"
 preserveAspectRatio="xMidYMid meet">
<metadata>
Created by potrace 1.10, written by Peter Selinger 2001-2011
</metadata>
<g transform="translate(0.000000,180.000000) scale(0.100000,-0.100000)"
fill="#000000" stroke="none">
<path d="M783 1566 c-233 -53 -416 -265 -453 -523 -38 -264 103 -539 334 -651
87 -42 157 -55 267 -50 105 6 167 24 252 75 327 198 394 681 133 970 -138 151
-346 221 -533 179z m279 -35 c96 -33 142 -62 218 -140 81 -82 135 -177 161
-281 20 -79 17 -251 -5 -325 -77 -256 -287 -425 -530 -425 -152 0 -275 50
-380 155 -195 194 -238 491 -108 739 83 158 241 274 407 300 55 8 182 -4 237
-23z"/>
<path d="M861 1299 c-17 -23 -31 -46 -31 -51 0 -5 -11 -1 -25 8 -31 20 -42 13
-50 -36 l-7 -39 -45 6 -46 6 7 -49 c8 -63 50 -130 105 -169 40 -28 49 -30 131
-30 82 0 91 2 131 30 55 39 97 106 105 169 l7 49 -46 -6 -45 -6 -7 39 c-8 48
-19 56 -47 38 -20 -14 -24 -12 -52 31 -17 24 -36 46 -43 49 -7 2 -26 -16 -42
-39z m70 -20 l27 -42 -27 -38 c-14 -21 -28 -38 -31 -38 -3 0 -17 17 -31 38
l-27 38 27 42 c14 22 28 41 31 41 3 0 17 -19 31 -41z m-65 -108 c18 -28 23
-45 18 -67 l-6 -31 -54 53 c-52 51 -61 73 -48 108 5 14 10 13 36 -5 16 -12 40
-38 54 -58z m163 24 c1 -12 -19 -37 -48 -62 -28 -24 -55 -59 -62 -78 -15 -40
-29 -46 -29 -12 0 50 34 121 78 166 41 41 46 43 53 25 4 -10 8 -28 8 -39z
m-281 -41 c68 -28 141 -119 142 -176 0 -38 -98 -8 -147 44 -25 26 -62 105 -63
131 0 21 19 22 68 1z m372 -1 c-1 -26 -38 -105 -63 -131 -47 -51 -147 -82
-147 -47 0 29 31 90 63 124 54 56 147 91 147 54z"/>
<path d="M624 835 c-2 -5 -2 -64 -1 -130 l2 -120 57 -3 c51 -3 61 0 83 22 30
30 32 69 5 96 -19 19 -19 21 -2 50 15 27 16 32 2 57 -14 25 -23 29 -79 33 -38
3 -65 1 -67 -5z m124 -29 c12 -12 14 -22 6 -43 -8 -25 -15 -28 -62 -31 l-52
-3 0 44 c0 24 3 47 8 51 11 12 83 -1 100 -18z m0 -112 c12 -8 22 -26 22 -39 0
-33 -36 -55 -87 -55 l-43 0 0 55 0 55 43 0 c23 0 53 -7 65 -16z"/>
<path d="M810 714 l0 -134 51 0 c50 0 87 12 101 34 15 22 8 73 -12 91 -17 15
-17 19 -5 32 21 20 19 67 -4 87 -11 10 -40 18 -75 20 l-56 3 0 -133z m104 106
c20 -7 26 -17 26 -38 0 -39 -17 -52 -67 -52 l-43 0 0 50 c0 49 1 50 29 50 16
0 41 -4 55 -10z m33 -136 c30 -42 4 -75 -65 -82 l-52 -5 0 58 0 58 52 -5 c34
-4 56 -12 65 -24z"/>
<path d="M990 715 c0 -165 18 -184 22 -23 l3 112 73 -113 c40 -63 75 -111 77
-109 10 10 10 258 0 258 -6 -1 -9 -41 -8 -105 2 -58 1 -105 -2 -105 -2 0 -37
50 -76 110 -40 61 -76 110 -81 110 -4 0 -8 -61 -8 -135z"/>
</g>
</svg>
